# xmcd CD database file
#
# Track frame offsets:
#	150
#	11806
#	24730
#	34063
#	53286
#	65537
#	75231
#	88883
#	100813
#	117461
#	129310
#	143910
#	153698
#	171224
#	183126
#	194401
#	213811
#
# Disc length: 3081 seconds
#
# Revision: 1
# Processed by: cddbd v1.5.2PL0 Copyright (c) Steve Scherf et al.
# Submitted via: CDex 1.51
#
DISCID=df0c0711
DTITLE=Ski-King - Early One Morning - A Tribute To Johnny Cash
DYEAR=2007
DGENRE=Country
TTITLE0=Big River
TTITLE1=Wanted Man
TTITLE2=I Got Stripes
TTITLE3=One Piece At A Time
TTITLE4=Cocaine Blues
TTITLE5=Dukes Of Hazzard
TTITLE6=Highway Man
TTITLE7=God's Gonna Cut You Down
TTITLE8=Hurt
TTITLE9=I Walk The Line
TTITLE10=It Ain't Me Babe
TTITLE11=Bonanza
TTITLE12=Ghostriders In The Sky
TTITLE13=Ring Of Fire
TTITLE14=Solitary Man
TTITLE15=When The Man Comes Around
TTITLE16=I Hung My Head
EXTD=YEAR: 2007
EXTT0=
EXTT1=
EXTT2=
EXTT3=
EXTT4=
EXTT5=
EXTT6=
EXTT7=
EXTT8=
EXTT9=
EXTT10=
EXTT11=
EXTT12=
EXTT13=
EXTT14=
EXTT15=
EXTT16=
PLAYORDER=
